<?xml version="1.0" standalone="no"?>
<!DOCTYPE svg PUBLIC "-//W3C//DTD SVG 20010904//EN"
 "http://www.w3.org/TR/2001/REC-SVG-20010904/DTD/svg10.dtd">
<svg version="1.0" xmlns="http://www.w3.org/2000/svg"
 width="512.000000pt" height="512.000000pt" viewBox="0 0 512.000000 512.000000"
 preserveAspectRatio="xMidYMid meet">
<metadata>
Created by potrace 1.14, written by Peter Selinger 2001-2017
</metadata>
<g transform="translate(0.000000,512.000000) scale(0.100000,-0.100000)"
fill="#000000" stroke="none">
<path d="M857 5096 c-80 -29 -153 -105 -171 -179 -4 -16 -7 -1077 -7 -2359 0
-1766 3 -2339 12 -2366 26 -80 96 -149 174 -171 59 -16 3343 -15 3397 1 50 15
122 78 151 132 l22 41 3 2345 c3 2665 11 2412 -84 2499 -35 32 -68 52 -98 60
-71 18 -3348 15 -3399 -3z m3391 -126 c18 -11 41 -34 52 -52 20 -33 20 -56 20
-2358 0 -2302 0 -2325 -20 -2358 -11 -18 -34 -41 -52 -52 -33 -20 -50 -20
-1700 -18 l-1668 3 -37 38 -38 37 -3 2339 -2 2338 23 34 c12 19 38 42 57 51
33 17 134 18 1685 18 1629 0 1650 0 1683 -20z"/>
<path d="M1350 4536 c-7 -34 -14 -72 -16 -86 -10 -56 -53 -287 -60 -317 -5
-26 -11 -33 -31 -33 -21 0 -24 -4 -21 -32 l3 -33 73 -1 72 -2 0 34 c0 24 -5
34 -15 34 -16 0 -19 17 -9 44 5 12 20 16 59 16 46 0 53 -3 59 -22 8 -33 8 -38
-8 -38 -15 0 -27 -42 -17 -58 3 -5 38 -9 76 -8 l70 1 3 32 c3 28 0 32 -25 35
-15 2 -28 8 -28 13 -1 6 -4 26 -8 45 -4 19 -9 46 -12 60 -3 14 -8 39 -10 55
-3 17 -15 77 -26 135 -11 58 -22 121 -25 140 -3 19 -7 36 -9 38 -2 2 -21 5
-43 6 l-40 3 -12 -61z m85 -253 c3 -19 8 -39 11 -44 3 -5 -1 -9 -8 -10 -7 0
-26 -2 -41 -3 -16 -1 -30 1 -33 5 -2 4 6 55 18 115 l22 109 12 -68 c7 -38 15
-84 19 -104z"/>
<path d="M1239 3874 c-92 -37 -95 -168 -8 -320 31 -55 160 -228 179 -239 11
-7 53 39 112 119 21 28 42 57 48 64 7 7 30 49 52 93 84 169 47 296 -85 292
-54 -1 -87 -24 -108 -75 l-12 -30 -14 34 c-24 60 -98 88 -164 62z"/>
<path d="M2235 3216 c-179 -57 -246 -257 -168 -501 66 -208 277 -532 508 -783
l40 -43 33 38 c19 21 46 52 60 68 155 175 313 410 397 587 64 137 85 220 82
336 -4 149 -50 231 -161 283 -51 24 -70 28 -135 26 -138 -5 -222 -76 -266
-221 l-12 -40 -18 59 c-27 83 -69 134 -142 171 -70 35 -150 42 -218 20z"/>
<path d="M3785 1788 c-225 -260 -285 -471 -154 -538 37 -20 46 -21 85 -10 48
14 67 30 85 75 10 26 13 27 17 10 13 -57 77 -100 134 -90 123 22 144 161 50
325 -46 79 -176 250 -191 250 -4 0 -15 -10 -26 -22z"/>
<path d="M3640 1053 c0 -28 4 -33 23 -33 22 0 25 -7 41 -82 9 -46 18 -96 21
-113 3 -16 7 -41 10 -55 3 -14 10 -47 15 -75 28 -149 30 -159 41 -166 5 -3 24
-5 42 -4 l32 2 22 114 c12 63 25 128 27 144 14 76 17 92 21 115 3 14 8 39 11
55 9 55 15 65 39 65 20 0 23 5 22 33 l-2 32 -72 1 -71 1 -4 -33 c-3 -28 -1
-34 15 -34 13 0 17 -5 13 -16 -3 -9 -6 -22 -6 -30 0 -10 -15 -14 -57 -14 -57
0 -58 0 -60 30 -2 21 2 30 12 30 10 0 15 11 15 33 l0 34 -75 0 -75 0 0 -34z
m226 -167 c2 -5 -39 -206 -42 -203 -3 3 -44 201 -44 211 0 3 84 -5 86 -8z"/>
</g>
</svg>
